<?xml version="1.0" encoding="UTF-8" standalone="no"?>
<!DOCTYPE svg PUBLIC "-//W3C//DTD SVG 1.1//EN"
 "http://www.w3.org/Graphics/SVG/1.1/DTD/svg11.dtd">
<!-- Generated by graphviz version 2.44.1 (20200629.0846)
 -->
<!-- Title: g Pages: 1 -->
<svg width="1247pt" height="1977pt"
 viewBox="0.00 0.00 1247.00 1976.80" xmlns="http://www.w3.org/2000/svg" xmlns:xlink="http://www.w3.org/1999/xlink">
<g id="graph0" class="graph" transform="scale(1 1) rotate(0) translate(4 1972.8)">
<title>g</title>
<polygon fill="white" stroke="transparent" points="-4,4 -4,-1972.8 1243,-1972.8 1243,4 -4,4"/>
<g id="clust1" class="cluster">
<title>cluster_306686519</title>
<polygon fill="#ececec" stroke="black" points="8,-8 8,-1960.8 1231,-1960.8 1231,-8 8,-8"/>
<text text-anchor="middle" x="40.88" y="-1944.2" font-family="Times New Roman,serif" font-size="14.00">bhargrah</text>
</g>
<g id="clust2" class="cluster">
<title>cluster_299813213</title>
<polygon fill="#d8d8d8" stroke="black" points="16,-16 16,-1928 1223,-1928 1223,-16 16,-16"/>
<text text-anchor="middle" x="55.87" y="-1911.4" font-family="Times New Roman,serif" font-size="14.00">energymart</text>
</g>
<!-- AccountGeneratorUtility2109212614 -->
<g id="node1" class="node">
<title>AccountGeneratorUtility2109212614</title>
<polygon fill="#ffffff" stroke="transparent" points="449.5,-637.2 24.5,-637.2 24.5,-587.2 449.5,-587.2 449.5,-637.2"/>
<text text-anchor="start" x="30" y="-619.6" font-family="Times New Roman,serif" font-size="14.00">(C)AccountGeneratorUtility</text>
<text text-anchor="start" x="29.94" y="-595.6" font-family="Times New Roman,serif" font-size="14.00">+ generateAccounts(pricePlans: PricePlans): Map&lt;Integer, UserAccount&gt;</text>
<polygon fill="black" stroke="black" points="25,-612.2 25,-612.2 450,-612.2 450,-612.2 25,-612.2"/>
<polygon fill="none" stroke="black" points="24.5,-587.2 24.5,-637.2 449.5,-637.2 449.5,-587.2 24.5,-587.2"/>
</g>
<!-- Accounts939224701 -->
<g id="node2" class="node">
<title>Accounts939224701</title>
<polygon fill="#ffffff" stroke="transparent" points="496.5,-984.8 109.5,-984.8 109.5,-838.8 496.5,-838.8 496.5,-984.8"/>
<text text-anchor="start" x="115" y="-967.2" font-family="Times New Roman,serif" font-size="14.00">(C)Accounts</text>
<text text-anchor="start" x="115" y="-943.2" font-family="Times New Roman,serif" font-size="14.00">&#45; &#160;&#160;pricePlans: PricePlans [0..1]</text>
<text text-anchor="start" x="115" y="-919.2" font-family="Times New Roman,serif" font-size="14.00">&#45; &#160;&#160;userAccountsMap: Map&lt;Integer, UserAccount&gt; [0..*]</text>
<text text-anchor="start" x="115" y="-895.2" font-family="Times New Roman,serif" font-size="14.00">+ getAccount(accountId: int): UserAccount</text>
<text text-anchor="start" x="114.58" y="-871.2" font-family="Times New Roman,serif" font-size="14.00">+ getAccountByMeterId(meterId: String): Optional&lt;UserAccount&gt;</text>
<text text-anchor="start" x="115" y="-847.2" font-family="Times New Roman,serif" font-size="14.00">+ init()</text>
<polygon fill="black" stroke="black" points="110,-959.8 110,-959.8 497,-959.8 497,-959.8 110,-959.8"/>
<polygon fill="black" stroke="black" points="110,-911.8 110,-911.8 497,-911.8 497,-911.8 110,-911.8"/>
<polygon fill="none" stroke="black" points="109.5,-838.8 109.5,-984.8 496.5,-984.8 496.5,-838.8 109.5,-838.8"/>
</g>
<!-- Accounts939224701&#45;&gt;AccountGeneratorUtility2109212614 -->
<g id="edge1" class="edge">
<title>Accounts939224701&#45;&gt;AccountGeneratorUtility2109212614</title>
<path fill="none" stroke="black" d="M287.02,-838.76C273.55,-777.99 254.85,-693.69 244.56,-647.27"/>
<polygon fill="black" stroke="black" points="247.95,-646.42 242.37,-637.41 241.12,-647.93 247.95,-646.42"/>
<text text-anchor="middle" x="359.58" y="-799.8" font-family="Times New Roman,serif" font-size="14.00">init() &#45;&gt; generateAccounts()</text>
</g>
<!-- PricePlans939224701 -->
<g id="node12" class="node">
<title>PricePlans939224701</title>
<polygon fill="#ffffff" stroke="transparent" points="700,-637.2 468,-637.2 468,-587.2 700,-587.2 700,-637.2"/>
<text text-anchor="start" x="473" y="-619.6" font-family="Times New Roman,serif" font-size="14.00">(C)PricePlans</text>
<text text-anchor="start" x="472.88" y="-595.6" font-family="Times New Roman,serif" font-size="14.00">&#45; &#160;&#160;pricePlanList: List&lt;PricePlan&gt; [0..*]</text>
<polygon fill="black" stroke="black" points="468,-612.2 468,-612.2 700,-612.2 700,-612.2 468,-612.2"/>
<polygon fill="none" stroke="black" points="468,-587.2 468,-637.2 700,-637.2 700,-587.2 468,-587.2"/>
</g>
<!-- Accounts939224701&#45;&gt;PricePlans939224701 -->
<g id="edge2" class="edge">
<title>Accounts939224701&#45;&gt;PricePlans939224701</title>
<path fill="none" stroke="black" d="M414.21,-838.8C430.54,-828.22 442,-820.8 442,-820.8 442,-820.8 521.59,-704.44 561.6,-645.95"/>
<polygon fill="black" stroke="black" points="564.68,-647.65 567.43,-637.42 558.9,-643.7 564.68,-647.65"/>
<text text-anchor="middle" x="491.16" y="-808.2" font-family="Times New Roman,serif" font-size="14.00">pricePlans</text>
<text text-anchor="middle" x="491.16" y="-791.4" font-family="Times New Roman,serif" font-size="14.00">[0..1]</text>
</g>
<!-- UserAccount968623631 -->
<g id="node13" class="node">
<title>UserAccount968623631</title>
<polygon fill="#ffffff" stroke="transparent" points="1093.5,-769.2 718.5,-769.2 718.5,-455.2 1093.5,-455.2 1093.5,-769.2"/>
<text text-anchor="start" x="724" y="-751.6" font-family="Times New Roman,serif" font-size="14.00">(C)UserAccount</text>
<text text-anchor="start" x="724" y="-727.6" font-family="Times New Roman,serif" font-size="14.00">&#45; &#160;&#160;accountStatus: String [0..1]</text>
<text text-anchor="start" x="724" y="-703.6" font-family="Times New Roman,serif" font-size="14.00">&#45; &#160;&#160;accountType: String [0..1]</text>
<text text-anchor="start" x="724" y="-679.6" font-family="Times New Roman,serif" font-size="14.00">&#45; &#160;&#160;id: Integer [0..1]</text>
<text text-anchor="start" x="724" y="-655.6" font-family="Times New Roman,serif" font-size="14.00">&#45; &#160;&#160;meterId: String [0..1]</text>
<text text-anchor="start" x="724" y="-631.6" font-family="Times New Roman,serif" font-size="14.00">&#45; &#160;&#160;planId: String [0..1]</text>
<text text-anchor="start" x="724" y="-607.6" font-family="Times New Roman,serif" font-size="14.00">&#45; &#160;&#160;userJoinDate: ZonedDateTime [0..1]</text>
<text text-anchor="start" x="724" y="-583.6" font-family="Times New Roman,serif" font-size="14.00">+ setAccountStatus(accountStatus: String): UserAccount</text>
<text text-anchor="start" x="724" y="-559.6" font-family="Times New Roman,serif" font-size="14.00">+ setAccountType(accountType: String): UserAccount</text>
<text text-anchor="start" x="724" y="-535.6" font-family="Times New Roman,serif" font-size="14.00">+ setId(id: Integer): UserAccount</text>
<text text-anchor="start" x="724" y="-511.6" font-family="Times New Roman,serif" font-size="14.00">+ setMeterId(meterId: String): UserAccount</text>
<text text-anchor="start" x="724" y="-487.6" font-family="Times New Roman,serif" font-size="14.00">+ setPlanId(planId: String): UserAccount</text>
<text text-anchor="start" x="723.54" y="-463.6" font-family="Times New Roman,serif" font-size="14.00">+ setUserJoinDate(userJoinDate: ZonedDateTime): UserAccount</text>
<polygon fill="black" stroke="black" points="719,-744.2 719,-744.2 1094,-744.2 1094,-744.2 719,-744.2"/>
<polygon fill="black" stroke="black" points="719,-600.2 719,-600.2 1094,-600.2 1094,-600.2 719,-600.2"/>
<polygon fill="none" stroke="black" points="718.5,-455.2 718.5,-769.2 1093.5,-769.2 1093.5,-455.2 718.5,-455.2"/>
</g>
<!-- Accounts939224701&#45;&gt;UserAccount968623631 -->
<g id="edge3" class="edge">
<title>Accounts939224701&#45;&gt;UserAccount968623631</title>
<path fill="none" stroke="black" d="M496.75,-842.08C502.63,-840 506,-838.8 506,-838.8 506,-838.8 709,-769.2 709,-769.2 709,-769.2 709.47,-768.82 710.38,-768.11"/>
<polygon fill="black" stroke="black" points="712.57,-770.84 718.24,-761.89 708.22,-765.35 712.57,-770.84"/>
<text text-anchor="middle" x="704.92" y="-808.2" font-family="Times New Roman,serif" font-size="14.00">userAccountsMap</text>
<text text-anchor="middle" x="704.92" y="-791.4" font-family="Times New Roman,serif" font-size="14.00">[0..*]</text>
</g>
<!-- ElectricityReading968623631 -->
<g id="node3" class="node">
<title>ElectricityReading968623631</title>
<polygon fill="#ffffff" stroke="transparent" points="691,-960.8 515,-960.8 515,-862.8 691,-862.8 691,-960.8"/>
<text text-anchor="start" x="520" y="-943.2" font-family="Times New Roman,serif" font-size="14.00">(C)ElectricityReading</text>
<text text-anchor="start" x="520" y="-919.2" font-family="Times New Roman,serif" font-size="14.00">&#45; &#160;&#160;hour: Instant [0..1]</text>
<text text-anchor="start" x="520" y="-895.2" font-family="Times New Roman,serif" font-size="14.00">&#45; &#160;&#160;meterId: String [0..1]</text>
<text text-anchor="start" x="520" y="-871.2" font-family="Times New Roman,serif" font-size="14.00">&#45; &#160;&#160;reading: BigDecimal [0..1]</text>
<polygon fill="black" stroke="black" points="515,-935.8 515,-935.8 691,-935.8 691,-935.8 515,-935.8"/>
<polygon fill="none" stroke="black" points="515,-862.8 515,-960.8 691,-960.8 691,-862.8 515,-862.8"/>
</g>
<!-- ElectricityReadings939224701 -->
<g id="node4" class="node">
<title>ElectricityReadings939224701</title>
<polygon fill="#ffffff" stroke="transparent" points="821,-1200.4 385,-1200.4 385,-1054.4 821,-1054.4 821,-1200.4"/>
<text text-anchor="start" x="390" y="-1182.8" font-family="Times New Roman,serif" font-size="14.00">(C)ElectricityReadings</text>
<text text-anchor="start" x="390" y="-1158.8" font-family="Times New Roman,serif" font-size="14.00">&#45; &#160;&#160;accounts: Accounts [0..1]</text>
<text text-anchor="start" x="389.51" y="-1134.8" font-family="Times New Roman,serif" font-size="14.00">&#45; &#160;&#160;meterAssociatedReadings: Map&lt;String, List&lt;ElectricityReading&gt;&gt; [0..*]</text>
<text text-anchor="start" x="390" y="-1110.8" font-family="Times New Roman,serif" font-size="14.00">+ add(reading: ElectricityReading)</text>
<text text-anchor="start" x="390" y="-1086.8" font-family="Times New Roman,serif" font-size="14.00">+ getReadingsForMeter(meterId: String): List&lt;ElectricityReading&gt;</text>
<text text-anchor="start" x="390" y="-1062.8" font-family="Times New Roman,serif" font-size="14.00">+ init()</text>
<polygon fill="black" stroke="black" points="385,-1175.4 385,-1175.4 821,-1175.4 821,-1175.4 385,-1175.4"/>
<polygon fill="black" stroke="black" points="385,-1127.4 385,-1127.4 821,-1127.4 821,-1127.4 385,-1127.4"/>
<polygon fill="none" stroke="black" points="385,-1054.4 385,-1200.4 821,-1200.4 821,-1054.4 385,-1054.4"/>
</g>
<!-- ElectricityReadings939224701&#45;&gt;Accounts939224701 -->
<g id="edge4" class="edge">
<title>ElectricityReadings939224701&#45;&gt;Accounts939224701</title>
<path fill="none" stroke="black" d="M501.85,-1054.38C473.09,-1033.9 441.63,-1011.51 412.4,-990.69"/>
<polygon fill="black" stroke="black" points="414.4,-987.82 404.22,-984.87 410.34,-993.52 414.4,-987.82"/>
<text text-anchor="middle" x="494.49" y="-1023.8" font-family="Times New Roman,serif" font-size="14.00">accounts</text>
<text text-anchor="middle" x="494.49" y="-1007" font-family="Times New Roman,serif" font-size="14.00">[0..1]</text>
</g>
<!-- ElectricityReadings939224701&#45;&gt;ElectricityReading968623631 -->
<g id="edge5" class="edge">
<title>ElectricityReadings939224701&#45;&gt;ElectricityReading968623631</title>
<path fill="none" stroke="black" d="M603,-1054.38C603,-1027.34 603,-996.97 603,-971.3"/>
<polygon fill="black" stroke="black" points="606.5,-970.99 603,-960.99 599.5,-970.99 606.5,-970.99"/>
<text text-anchor="middle" x="675.7" y="-1023.8" font-family="Times New Roman,serif" font-size="14.00">meterAssociatedReadings</text>
<text text-anchor="middle" x="675.7" y="-1007" font-family="Times New Roman,serif" font-size="14.00">[0..*]</text>
</g>
<!-- ElectricityReadingsGenerator2109212614 -->
<g id="node5" class="node">
<title>ElectricityReadingsGenerator2109212614</title>
<polygon fill="#ffffff" stroke="transparent" points="1214.5,-936.8 709.5,-936.8 709.5,-886.8 1214.5,-886.8 1214.5,-936.8"/>
<text text-anchor="start" x="715" y="-919.2" font-family="Times New Roman,serif" font-size="14.00">(C)ElectricityReadingsGenerator</text>
<text text-anchor="start" x="714.76" y="-895.2" font-family="Times New Roman,serif" font-size="14.00">+ generateMeterReadings(accounts: Accounts): Map&lt;String, List&lt;ElectricityReading&gt;&gt;</text>
<polygon fill="black" stroke="black" points="710,-911.8 710,-911.8 1215,-911.8 1215,-911.8 710,-911.8"/>
<polygon fill="none" stroke="black" points="709.5,-886.8 709.5,-936.8 1214.5,-936.8 1214.5,-886.8 709.5,-886.8"/>
</g>
<!-- ElectricityReadings939224701&#45;&gt;ElectricityReadingsGenerator2109212614 -->
<g id="edge6" class="edge">
<title>ElectricityReadings939224701&#45;&gt;ElectricityReadingsGenerator2109212614</title>
<path fill="none" stroke="black" d="M724.04,-1054.38C788.62,-1015.96 864.53,-970.79 912.94,-941.99"/>
<polygon fill="black" stroke="black" points="914.84,-944.93 921.65,-936.81 911.26,-938.91 914.84,-944.93"/>
<text text-anchor="middle" x="897.9" y="-1015.4" font-family="Times New Roman,serif" font-size="14.00">init() &#45;&gt; generateMeterReadings()</text>
</g>
<!-- MeterReadingController611950124 -->
<g id="node6" class="node">
<title>MeterReadingController611950124</title>
<polygon fill="#ffffff" stroke="transparent" points="1214.5,-1643.6 671.5,-1643.6 671.5,-1497.6 1214.5,-1497.6 1214.5,-1643.6"/>
<text text-anchor="start" x="677" y="-1626" font-family="Times New Roman,serif" font-size="14.00">(C)MeterReadingController</text>
<text text-anchor="start" x="677" y="-1602" font-family="Times New Roman,serif" font-size="14.00">&#45; &#160;&#160;accounts: Accounts [0..1]</text>
<text text-anchor="start" x="677" y="-1578" font-family="Times New Roman,serif" font-size="14.00">&#45; &#160;&#160;meterReadingService: MeterReadingService [0..1]</text>
<text text-anchor="start" x="677" y="-1554" font-family="Times New Roman,serif" font-size="14.00">&#45; isValidReading(reading: ElectricityReading): boolean</text>
<text text-anchor="start" x="676.89" y="-1530" font-family="Times New Roman,serif" font-size="14.00">+ readReadings(accountId: Integer, limit: Integer): ResponseEntity&lt;List&lt;ElectricityReading&gt;&gt;</text>
<text text-anchor="start" x="677" y="-1506" font-family="Times New Roman,serif" font-size="14.00">+ storeReading(reading: ElectricityReading): ResponseEntity</text>
<polygon fill="black" stroke="black" points="672,-1618.6 672,-1618.6 1215,-1618.6 1215,-1618.6 672,-1618.6"/>
<polygon fill="black" stroke="black" points="672,-1570.6 672,-1570.6 1215,-1570.6 1215,-1570.6 672,-1570.6"/>
<polygon fill="none" stroke="black" points="671.5,-1497.6 671.5,-1643.6 1214.5,-1643.6 1214.5,-1497.6 671.5,-1497.6"/>
</g>
<!-- MeterReadingService1917793149 -->
<g id="node7" class="node">
<title>MeterReadingService1917793149</title>
<polygon fill="#ffffff" stroke="transparent" points="766.5,-1392 439.5,-1392 439.5,-1270 766.5,-1270 766.5,-1392"/>
<text text-anchor="start" x="445" y="-1374.4" font-family="Times New Roman,serif" font-size="14.00">(C)MeterReadingService</text>
<text text-anchor="start" x="445" y="-1350.4" font-family="Times New Roman,serif" font-size="14.00">&#45; &#160;&#160;accounts: Accounts [0..1]</text>
<text text-anchor="start" x="445" y="-1326.4" font-family="Times New Roman,serif" font-size="14.00">&#45; &#160;&#160;electricityReadings: ElectricityReadings [0..1]</text>
<text text-anchor="start" x="444.89" y="-1302.4" font-family="Times New Roman,serif" font-size="14.00">+ getReadings(accountId: int): List&lt;ElectricityReading&gt;</text>
<text text-anchor="start" x="445" y="-1278.4" font-family="Times New Roman,serif" font-size="14.00">+ storeReading(reading: ElectricityReading)</text>
<polygon fill="black" stroke="black" points="440,-1367 440,-1367 767,-1367 767,-1367 440,-1367"/>
<polygon fill="black" stroke="black" points="440,-1319 440,-1319 767,-1319 767,-1319 440,-1319"/>
<polygon fill="none" stroke="black" points="439.5,-1270 439.5,-1392 766.5,-1392 766.5,-1270 439.5,-1270"/>
</g>
<!-- MeterReadingController611950124&#45;&gt;MeterReadingService1917793149 -->
<g id="edge7" class="edge">
<title>MeterReadingController611950124&#45;&gt;MeterReadingService1917793149</title>
<path fill="none" stroke="black" d="M839.6,-1497.34C794.36,-1465.73 741.64,-1428.89 697.47,-1398.01"/>
<polygon fill="black" stroke="black" points="699.24,-1394.98 689.03,-1392.12 695.23,-1400.72 699.24,-1394.98"/>
<text text-anchor="middle" x="812.25" y="-1431" font-family="Times New Roman,serif" font-size="14.00">meterReadingService</text>
<text text-anchor="middle" x="812.25" y="-1414.2" font-family="Times New Roman,serif" font-size="14.00">[0..1]</text>
</g>
<!-- MeterReadingService1917793149&#45;&gt;ElectricityReadings939224701 -->
<g id="edge8" class="edge">
<title>MeterReadingService1917793149&#45;&gt;ElectricityReadings939224701</title>
<path fill="none" stroke="black" d="M603,-1269.79C603,-1251.31 603,-1230.65 603,-1210.95"/>
<polygon fill="black" stroke="black" points="606.5,-1210.76 603,-1200.76 599.5,-1210.76 606.5,-1210.76"/>
<text text-anchor="middle" x="657.04" y="-1239.4" font-family="Times New Roman,serif" font-size="14.00">electricityReadings</text>
<text text-anchor="middle" x="657.04" y="-1222.6" font-family="Times New Roman,serif" font-size="14.00">[0..1]</text>
</g>
<!-- OffPeakTimeMultiplier968623631 -->
<g id="node8" class="node">
<title>OffPeakTimeMultiplier968623631</title>
<polygon fill="#ffffff" stroke="transparent" points="678.5,-98 489.5,-98 489.5,-24 678.5,-24 678.5,-98"/>
<text text-anchor="start" x="495" y="-80.4" font-family="Times New Roman,serif" font-size="14.00">(C)OffPeakTimeMultiplier</text>
<text text-anchor="start" x="495" y="-56.4" font-family="Times New Roman,serif" font-size="14.00">&#45; &#160;&#160;hourOfWeek: int [1]</text>
<text text-anchor="start" x="494.88" y="-32.4" font-family="Times New Roman,serif" font-size="14.00">&#45; &#160;&#160;multiplier: BigDecimal [0..1]</text>
<polygon fill="black" stroke="black" points="490,-73 490,-73 679,-73 679,-73 490,-73"/>
<polygon fill="none" stroke="black" points="489.5,-24 489.5,-98 678.5,-98 678.5,-24 489.5,-24"/>
</g>
<!-- PricePlan968623631 -->
<g id="node9" class="node">
<title>PricePlan968623631</title>
<polygon fill="#ffffff" stroke="transparent" points="809.5,-385.6 358.5,-385.6 358.5,-167.6 809.5,-167.6 809.5,-385.6"/>
<text text-anchor="start" x="364" y="-368" font-family="Times New Roman,serif" font-size="14.00">(C)PricePlan</text>
<text text-anchor="start" x="364" y="-344" font-family="Times New Roman,serif" font-size="14.00">&#45; &#160;&#160;energySupplier: String [0..1]</text>
<text text-anchor="start" x="364" y="-320" font-family="Times New Roman,serif" font-size="14.00">&#45; &#160;&#160;offPeakTimeMultipliers: List&lt;OffPeakTimeMultiplier&gt; [0..*]</text>
<text text-anchor="start" x="364" y="-296" font-family="Times New Roman,serif" font-size="14.00">&#45; &#160;&#160;planName: String [0..1]</text>
<text text-anchor="start" x="364" y="-272" font-family="Times New Roman,serif" font-size="14.00">&#45; &#160;&#160;rating: Double [0..1]</text>
<text text-anchor="start" x="364" y="-248" font-family="Times New Roman,serif" font-size="14.00">&#45; &#160;&#160;unitRate: BigDecimal [0..1]</text>
<text text-anchor="start" x="364" y="-224" font-family="Times New Roman,serif" font-size="14.00">+ getPrice(reading: BigDecimal, instant: Instant): BigDecimal</text>
<text text-anchor="start" x="364" y="-200" font-family="Times New Roman,serif" font-size="14.00">+ getPriceMemoryLeak(reading: BigDecimal, instant: Instant): BigDecimal</text>
<text text-anchor="start" x="363.62" y="-176" font-family="Times New Roman,serif" font-size="14.00">+ getPriceNoMemoryLeak(reading: BigDecimal, instant: Instant): BigDecimal</text>
<polygon fill="black" stroke="black" points="359,-360.6 359,-360.6 810,-360.6 810,-360.6 359,-360.6"/>
<polygon fill="black" stroke="black" points="359,-240.6 359,-240.6 810,-240.6 810,-240.6 359,-240.6"/>
<polygon fill="none" stroke="black" points="358.5,-167.6 358.5,-385.6 809.5,-385.6 809.5,-167.6 358.5,-167.6"/>
</g>
<!-- PricePlan968623631&#45;&gt;OffPeakTimeMultiplier968623631 -->
<g id="edge9" class="edge">
<title>PricePlan968623631&#45;&gt;OffPeakTimeMultiplier968623631</title>
<path fill="none" stroke="black" d="M584,-167.55C584,-146.81 584,-126.14 584,-108.65"/>
<polygon fill="black" stroke="black" points="587.5,-108.21 584,-98.21 580.5,-108.21 587.5,-108.21"/>
<text text-anchor="middle" x="651.65" y="-137" font-family="Times New Roman,serif" font-size="14.00">offPeakTimeMultipliers</text>
<text text-anchor="middle" x="651.65" y="-120.2" font-family="Times New Roman,serif" font-size="14.00">[0..*]</text>
</g>
<!-- PricePlanCompareController611950124 -->
<g id="node10" class="node">
<title>PricePlanCompareController611950124</title>
<polygon fill="#ffffff" stroke="transparent" points="878,-1895.2 330,-1895.2 330,-1749.2 878,-1749.2 878,-1895.2"/>
<text text-anchor="start" x="335" y="-1877.6" font-family="Times New Roman,serif" font-size="14.00">(C)PricePlanCompareController</text>
<text text-anchor="start" x="335" y="-1853.6" font-family="Times New Roman,serif" font-size="14.00">&#45; &#160;&#160;accounts: Accounts [0..1]</text>
<text text-anchor="start" x="335" y="-1829.6" font-family="Times New Roman,serif" font-size="14.00">&#45; &#160;&#160;notFoundCounter: Counter [0..1]</text>
<text text-anchor="start" x="335" y="-1805.6" font-family="Times New Roman,serif" font-size="14.00">&#45; &#160;&#160;pricePlanService: PricePlanService [0..1]</text>
<text text-anchor="start" x="335" y="-1781.6" font-family="Times New Roman,serif" font-size="14.00">&#45; &#160;&#160;responseTimer: Timer [0..1]</text>
<text text-anchor="start" x="334.79" y="-1757.6" font-family="Times New Roman,serif" font-size="14.00">+ recommendPricePlans(accountId: Integer, limit: Integer): ResponseEntity&lt;Recommendation&gt;</text>
<polygon fill="black" stroke="black" points="330,-1870.2 330,-1870.2 878,-1870.2 878,-1870.2 330,-1870.2"/>
<polygon fill="black" stroke="black" points="330,-1774.2 330,-1774.2 878,-1774.2 878,-1774.2 330,-1774.2"/>
<polygon fill="none" stroke="black" points="330,-1749.2 330,-1895.2 878,-1895.2 878,-1749.2 330,-1749.2"/>
</g>
<!-- PricePlanService1917793149 -->
<g id="node11" class="node">
<title>PricePlanService1917793149</title>
<polygon fill="#ffffff" stroke="transparent" points="653.5,-1679.6 24.5,-1679.6 24.5,-1461.6 653.5,-1461.6 653.5,-1679.6"/>
<text text-anchor="start" x="30" y="-1662" font-family="Times New Roman,serif" font-size="14.00">(C)PricePlanService</text>
<text text-anchor="start" x="30" y="-1638" font-family="Times New Roman,serif" font-size="14.00">&#45; &#160;&#160;meterReadingService: MeterReadingService [0..1]</text>
<text text-anchor="start" x="30" y="-1614" font-family="Times New Roman,serif" font-size="14.00">&#45; &#160;&#160;pricePlans: PricePlans [0..1]</text>
<text text-anchor="start" x="30" y="-1590" font-family="Times New Roman,serif" font-size="14.00">&#45; calculateAverageReading(electricityReadings: List&lt;ElectricityReading&gt;): BigDecimal</text>
<text text-anchor="start" x="30" y="-1566" font-family="Times New Roman,serif" font-size="14.00">&#45; calculateCost(electricityReadings: List&lt;ElectricityReading&gt;, pricePlan: PricePlan): BigDecimal</text>
<text text-anchor="start" x="30" y="-1542" font-family="Times New Roman,serif" font-size="14.00">&#45; calculateTimeElapsed(electricityReadings: List&lt;ElectricityReading&gt;): BigDecimal</text>
<text text-anchor="start" x="30" y="-1518" font-family="Times New Roman,serif" font-size="14.00">&#45; calculateTotalCost(electricityReadings: List&lt;ElectricityReading&gt;, pricePlan: PricePlan): BigDecimal</text>
<text text-anchor="start" x="30" y="-1494" font-family="Times New Roman,serif" font-size="14.00">+ get7DayCostOfElectricityForEachPricePlan(accountId: int): Map&lt;PricePlan, BigDecimal&gt;</text>
<text text-anchor="start" x="29.65" y="-1470" font-family="Times New Roman,serif" font-size="14.00">+ getConsumptionCostOfElectricityReadingsForEachPricePlan(accountId: int): Map&lt;PricePlan, BigDecimal&gt;</text>
<polygon fill="black" stroke="black" points="25,-1654.6 25,-1654.6 654,-1654.6 654,-1654.6 25,-1654.6"/>
<polygon fill="black" stroke="black" points="25,-1606.6 25,-1606.6 654,-1606.6 654,-1606.6 25,-1606.6"/>
<polygon fill="none" stroke="black" points="24.5,-1461.6 24.5,-1679.6 653.5,-1679.6 653.5,-1461.6 24.5,-1461.6"/>
</g>
<!-- PricePlanCompareController611950124&#45;&gt;PricePlanService1917793149 -->
<g id="edge10" class="edge">
<title>PricePlanCompareController611950124&#45;&gt;PricePlanService1917793149</title>
<path fill="none" stroke="black" d="M527.35,-1749.01C506.66,-1729.52 483.75,-1707.94 461.23,-1686.73"/>
<polygon fill="black" stroke="black" points="463.62,-1684.17 453.94,-1679.86 458.82,-1689.26 463.62,-1684.17"/>
<text text-anchor="middle" x="550.42" y="-1718.6" font-family="Times New Roman,serif" font-size="14.00">pricePlanService</text>
<text text-anchor="middle" x="550.42" y="-1701.8" font-family="Times New Roman,serif" font-size="14.00">[0..1]</text>
</g>
<!-- PricePlanService1917793149&#45;&gt;MeterReadingService1917793149 -->
<g id="edge11" class="edge">
<title>PricePlanService1917793149&#45;&gt;MeterReadingService1917793149</title>
<path fill="none" stroke="black" d="M459.03,-1461.58C482.79,-1440.19 507.07,-1418.34 528.76,-1398.82"/>
<polygon fill="black" stroke="black" points="531.22,-1401.31 536.32,-1392.02 526.54,-1396.1 531.22,-1401.31"/>
<text text-anchor="middle" x="570.25" y="-1431" font-family="Times New Roman,serif" font-size="14.00">meterReadingService</text>
<text text-anchor="middle" x="570.25" y="-1414.2" font-family="Times New Roman,serif" font-size="14.00">[0..1]</text>
</g>
<!-- PricePlans939224701&#45;&gt;PricePlan968623631 -->
<g id="edge12" class="edge">
<title>PricePlans939224701&#45;&gt;PricePlan968623631</title>
<path fill="none" stroke="black" d="M584,-586.94C584,-547.14 584,-465.46 584,-396.03"/>
<polygon fill="black" stroke="black" points="587.5,-395.88 584,-385.88 580.5,-395.88 587.5,-395.88"/>
<text text-anchor="middle" x="621.32" y="-424.6" font-family="Times New Roman,serif" font-size="14.00">pricePlanList</text>
<text text-anchor="middle" x="621.32" y="-407.8" font-family="Times New Roman,serif" font-size="14.00">[0..*]</text>
</g>
<!-- WeekHour2109212614 -->
<g id="node14" class="node">
<title>WeekHour2109212614</title>
<polygon fill="#ffffff" stroke="transparent" points="312,-1847.2 24,-1847.2 24,-1797.2 312,-1797.2 312,-1847.2"/>
<text text-anchor="start" x="29" y="-1829.6" font-family="Times New Roman,serif" font-size="14.00">(C)WeekHour</text>
<text text-anchor="start" x="28.96" y="-1805.6" font-family="Times New Roman,serif" font-size="14.00">+ fromDateTime(dateTime: ZonedDateTime): int</text>
<polygon fill="black" stroke="black" points="24,-1822.2 24,-1822.2 312,-1822.2 312,-1822.2 24,-1822.2"/>
<polygon fill="none" stroke="black" points="24,-1797.2 24,-1847.2 312,-1847.2 312,-1797.2 24,-1797.2"/>
</g>
</g>
</svg>
